<?xml version="1.0" ?><!DOCTYPE svg  PUBLIC '-//W3C//DTD SVG 1.1//EN'  'http://www.w3.org/Graphics/SVG/1.1/DTD/svg11.dtd'><svg enable-background="new 0 0 512 512" height="512px" id="Pig" version="1.1" viewBox="0 0 512 512" width="512px" xml:space="preserve" xmlns="http://www.w3.org/2000/svg" xmlns:xlink="http://www.w3.org/1999/xlink"><path d="M26.018,157.216l20.07,40.14c1.159,2.317,3.287,2.711,4.149,2.771c0.862,0.064,3.024-0.026,4.499-2.157  l2.972-4.293c4.173-16.529,9.612-30.521,16.541-42.446C60.916,151.031,41.16,154.057,26.018,157.216" fill="#DD9EAC"/><path d="M145.632,381.295c0.815-0.389,1.697-0.582,2.58-0.582c0.846,0,1.693,0.178,2.482,0.537l16.422,7.465  l6.532-15.209c-14.868-4.859-27.085-11.822-36.784-20.934l-2.817,34.24L145.632,381.295z" fill="#C18192"/><path d="M286.711,134.832c4.594-3.25,10.498-6.129,18.1-7.954c18.459-4.428,56.928,6.146,61.254,7.368  c1.723,0.484,3.137,1.713,3.859,3.349s0.678,3.508-0.121,5.108l-23.549,47.098c-2.713,5.424-7.941,8.917-13.99,9.347  c-0.416,0.029-0.83,0.044-1.242,0.044c-5.574,0-10.713-2.677-13.926-7.319l-5.578-8.057c2.469,8.09,4.479,16.338,6.205,24.562  c7.273,34.651,3.313,60.729-12.109,79.723c-19.848,24.445-57.829,35.832-119.525,35.832c-22.252,0-41.384-1.49-57.694-4.531  c3.798,9.029,9.146,17.338,16.673,24.414c21.808,20.498,59.082,28.814,113.951,25.41c0.127-0.008,0.252-0.012,0.377-0.012  c3.016,0,5.592,2.256,5.953,5.289l3.26,27.354l14.531-6.605c1.611-0.732,3.465-0.717,5.064,0.045l13.154,6.266l2.365-28.664  c0.23-2.779,2.346-5.035,5.104-5.443l3.129-0.463c20.209-2.992,22.322-3.305,54.711-4.08c2.959-0.082,5.508,2.008,6.045,4.906  l5.414,29.258l15.014-6.824c1.613-0.732,3.465-0.717,5.064,0.045l11.875,5.656l-1.857-33.912c-0.115-2.092,0.871-4.094,2.604-5.277  c11.893-8.139,43.484-29.754,41.391-98.867c-1.072-35.328-6.98-85.9-45.764-117.1c-31.227-25.119-79.953-34.45-145.18-27.903  C271.436,118.998,279.791,126.44,286.711,134.832" fill="#FFCAD4"/><path d="M292.682,192.439l-20.518-31.927c-0.859-1.335-1.152-2.955-0.818-4.507  c0.102-0.469,1.471-6.388,6.645-12.944c-1.555-1.916-3.166-3.757-4.844-5.517c-19.4-20.355-47.682-30.258-86.44-30.258  c-0.202,0-0.4,0.002-0.603,0.002c-38.471,0.102-66.837,10.047-86.717,30.407c-16.245,16.635-26.784,39.846-33.169,73.047  c-6.055,31.482-2.623,54.505,10.489,70.378c17.363,21.02,52.12,30.811,109.382,30.811c57.799,0,92.818-9.977,110.209-31.396  c12.998-16.008,16.164-38.806,9.682-69.693c-1.285-6.128-2.666-11.874-4.148-17.282c-1.045,0.982-2.418,1.582-3.895,1.634  C295.814,195.258,293.824,194.219,292.682,192.439" fill="#FFCAD4"/><path d="M270.164,142.938l3.924,6.105c0.963-1.82,2.232-3.866,3.902-5.982c-1.555-1.916-3.166-3.756-4.844-5.517  c-0.863-0.905-1.75-1.783-2.65-2.648c-0.795,1.993-1.104,3.323-1.15,3.534C269.012,139.982,269.307,141.603,270.164,142.938" fill="#FFCAD4"/><path d="M307.121,216.778c0.873,19.314-3.375,34.544-12.824,46.181c-17.391,21.42-52.41,31.396-110.209,31.396  c-57.262,0-92.019-9.789-109.382-30.811c-5.466-6.617-9.226-14.499-11.341-23.697c0.26,17.129,4.67,30.775,13.341,41.273  c17.363,21.02,52.12,30.811,109.382,30.811c57.799,0,92.819-9.977,110.209-31.396C308.447,265.57,312.004,244.672,307.121,216.778" fill="#DD9EAC"/><path d="M272.164,160.513l20.518,31.927c1.143,1.779,3.131,2.817,5.254,2.753c1.477-0.052,2.848-0.651,3.895-1.634  c1.482,5.408,2.861,11.154,4.148,17.282c0.422,2.014,0.803,3.991,1.143,5.937c-0.328-7.253-1.373-15.078-3.143-23.512  c-1.287-6.127-2.666-11.873-4.148-17.282c-1.047,0.983-2.418,1.582-3.895,1.633c-2.123,0.066-4.111-0.973-5.254-2.752l-16.594-25.82  c-2.02,3.822-2.674,6.644-2.742,6.961C271.012,157.557,271.307,159.178,272.164,160.513" fill="#FFCAD4"/><path d="M188.18,226.903c-7.97-6.191-18.968-9.6-30.968-9.6s-22.997,3.408-30.968,9.6  c-5.488,4.263-12.032,11.819-12.032,23.604c0,10.851,2.807,18.667,8.58,23.897c6.815,6.177,18.396,9.309,34.42,9.309  c28.935,0,43-10.861,43-33.206C200.212,238.722,193.669,231.166,188.18,226.903" fill="#FFCAD4"/><path d="M200.212,250.508c0-11.785-6.543-19.341-12.032-23.604c-7.97-6.191-18.968-9.602-30.968-9.602  c-7.345,0-14.31,1.283-20.439,3.694l53.723,53.724C196.997,269.22,200.212,261.176,200.212,250.508" fill="#FFE6EC"/><path d="M157.212,205.302c-31.355,0-55,19.435-55,45.205c0,29.996,18.505,45.205,55,45.205  c47.854,0,55-28.322,55-45.205C212.212,224.737,188.567,205.302,157.212,205.302 M157.212,283.713  c-16.024,0-27.605-3.131-34.42-9.307c-5.773-5.232-8.58-13.051-8.58-23.898c0-11.785,6.543-19.341,12.032-23.604  c7.97-6.191,18.968-9.601,30.968-9.601s22.998,3.409,30.968,9.601c5.489,4.264,12.032,11.819,12.032,23.604  C200.212,272.851,186.147,283.713,157.212,283.713" fill="#DD9EAC"/><path d="M138.761,237.172c-2.745,0.713-4.549,3.353-4.549,6.188v18.972c0,2.835,1.804,5.476,4.549,6.188  c3.883,1.008,7.54-2.086,7.54-5.852v-19.645C146.301,239.257,142.644,236.163,138.761,237.172" fill="#C45B76"/><path d="M108.212,205.712c0-7.18-5.82-13-13-13s-13,5.82-13,13s5.82,13,13,13S108.212,212.891,108.212,205.712" fill="#60433A"/><path d="M295.219,160.04c-1.838-2.757-1.092-6.481,1.664-8.319c2.758-1.841,6.482-1.095,8.32,1.663l7.715,11.571  c0.26,0.259,0.508,0.534,0.719,0.841l13.326,19.246c1.459,2.109,3.6,2.191,4.451,2.136c0.852-0.061,2.959-0.45,4.105-2.744  l20.242-40.48c-13.859-3.398-37.285-8.016-48.15-5.407c-16.186,3.886-21.973,13.551-23.801,17.895l13.514,21.029l4.299-7.825  L295.219,160.04z" fill="#DD9EAC"/><circle cx="240.212" cy="207.712" fill="#60433A" r="16"/><path d="M499.031,138.177c-19.783-19.784-53.178-18.742-75.434,1.968c-0.275,0.258-0.547,0.523-0.82,0.784  c0.273-0.261,0.545-0.526,0.82-0.784c-2.99-3.012-6.178-5.927-9.625-8.699c-19.471-15.663-45.018-25.804-75.932-30.137  c-27.671-3.878-60.381-3.197-97.501,1.999h-0.001c-14.851-5.12-32.577-8.021-53.846-8.021c-0.202,0-0.418,0.002-0.62,0.002  c-41.86,0.11-73.024,11.239-95.272,34.023c-3.202,3.278-6.197,6.776-9.001,10.507c0,0,0,0,0,0  c-22.17-2.689-60.936,6.175-65.962,7.36c-1.786,0.421-3.281,1.635-4.059,3.296c-0.777,1.661-0.753,3.587,0.068,5.227l23.509,47.021  c2.72,5.438,7.965,8.942,14.031,9.374c0.419,0.029,0.834,0.045,1.249,0.045c1.08,0,2.144-0.103,3.181-0.298  c-5.869,33.531-1.397,58.718,13.639,76.92c10.419,12.613,25.789,21.68,46.897,27.447c2.707,8.301,6.425,16.26,11.522,23.609  c1.056,1.523,2.194,3.009,3.371,4.477c-1.177-1.468-2.315-2.953-3.371-4.477l-4.642,56.4c-0.175,2.139,0.805,4.209,2.572,5.43  c1.019,0.703,2.211,1.063,3.409,1.063c0.878,0,1.76-0.193,2.579-0.584l18.48-8.799l19.458,8.844  c1.467,0.668,3.143,0.717,4.648,0.135c1.504-0.584,2.711-1.746,3.348-3.229l9.588-22.326c19.107,4.484,41.948,6.061,68.785,4.76  l3.566,29.91c0.227,1.898,1.348,3.578,3.016,4.518c0.91,0.514,1.926,0.771,2.943,0.771c0.846,0,1.691-0.18,2.482-0.537l19.457-8.846  l18.48,8.799c1.779,0.848,3.861,0.768,5.57-0.215c1.709-0.984,2.826-2.744,2.988-4.707l2.689-32.578  c17.412-2.576,20.537-2.947,46.551-3.598l5.881,31.773c0.336,1.816,1.49,3.375,3.125,4.229c1.639,0.854,3.576,0.904,5.258,0.143  l19.457-8.846l18.48,8.799c1.912,0.91,4.162,0.746,5.92-0.434c1.76-1.178,2.766-3.197,2.65-5.311l-2.229-40.676  c20.568-14.84,45.789-42.309,43.824-107.178c-0.961-31.733-5.689-75.073-32.594-108.455c5.674-5.325,12.236-9.056,19.045-11.146  c-1.25,5.508,0.248,11.521,4.529,15.802c3.316,3.314,7.668,4.973,12.021,4.973s8.707-1.658,12.021-4.973  c3.34-3.339,4.992-7.733,4.967-12.12c2.266,1.415,4.396,3.099,6.348,5.05c2.342,2.343,6.141,2.343,8.484,0  C501.373,144.318,501.373,140.519,499.031,138.177z M429.5,150.967c-0.998,0.658-2.148,0.988-3.301,0.988l0,0  C427.352,151.955,428.502,151.625,429.5,150.967z M57.708,193.677l-2.972,4.292c-1.475,2.131-3.637,2.222-4.5,2.157  c-0.861-0.061-2.989-0.454-4.149-2.771l-20.069-40.14c15.142-3.158,34.897-6.184,48.229-5.985  c-6.928,11.926-12.368,25.918-16.54,42.445L57.708,193.677z M76.706,281.121c-13.112-15.873-16.543-38.896-10.488-70.378  c6.384-33.201,16.924-56.412,33.168-73.047c19.881-20.36,48.247-30.306,86.718-30.407c0.203,0,0.401-0.002,0.603-0.002  c38.757,0,67.041,9.902,86.44,30.258c1.678,1.76,3.289,3.601,4.844,5.517c-5.174,6.557-6.543,12.476-6.645,12.944  c-0.334,1.552-0.041,3.173,0.818,4.508l20.518,31.927c1.143,1.779,3.133,2.817,5.254,2.753c1.476-0.051,2.849-0.651,3.895-1.633  c1.482,5.408,2.861,11.154,4.148,17.281c6.482,30.888,3.316,53.686-9.682,69.693c-17.391,21.42-52.41,31.396-110.209,31.396  C128.826,311.931,94.068,302.14,76.706,281.121z M305.203,153.385c-1.838-2.759-5.563-3.505-8.32-1.664  c-2.758,1.838-3.502,5.563-1.664,8.319l6.404,9.604l-4.299,7.825l-13.514-21.029c1.828-4.344,7.615-14.009,23.801-17.895  c10.865-2.608,34.293,2.009,48.148,5.407l-20.238,40.481c-1.148,2.294-3.256,2.683-4.107,2.743  c-0.852,0.056-2.992-0.026-4.453-2.136l-13.324-19.246c-0.213-0.307-0.459-0.582-0.719-0.841L305.203,153.385z M302.665,192.57  c-0.104,0.149-0.208,0.298-0.324,0.436C302.457,192.868,302.561,192.719,302.665,192.57z M173.648,373.506l-6.532,15.209  l-16.422-7.465c-0.789-0.359-1.636-0.537-2.483-0.537c-0.882,0-1.764,0.193-2.579,0.582l-11.586,5.518l2.818-34.24  c-0.001,0-0.002-0.002-0.003-0.002c0.001,0,0.002,0.001,0.003,0.002C146.563,361.683,158.781,368.646,173.648,373.506  c0.557,0.182,1.125,0.354,1.689,0.53C174.773,373.86,174.205,373.687,173.648,373.506z M452.215,257.894  c2.094,69.113-29.498,90.729-41.393,98.867c-1.729,1.184-2.717,3.186-2.602,5.279l1.857,33.91l-11.875-5.656  c-1.6-0.762-3.451-0.777-5.064-0.045l-15.014,6.824l-5.414-29.258c-0.537-2.898-3.086-4.986-6.045-4.906  c-32.389,0.775-34.502,1.088-54.711,4.08l-3.129,0.465c-2.76,0.406-4.873,2.662-5.104,5.441l-2.365,28.662l-13.154-6.264  c-1.6-0.762-3.453-0.777-5.064-0.045l-14.529,6.605l-3.262-27.354c-0.363-3.033-2.938-5.289-5.953-5.289  c-0.125,0-0.25,0.004-0.377,0.012c-54.868,3.404-92.143-4.912-113.951-25.41c-7.527-7.075-12.874-15.385-16.673-24.414  c16.31,3.043,35.442,4.531,57.693,4.531c61.698,0,99.678-11.387,119.526-35.834c15.42-18.992,19.381-45.069,12.109-79.721  c-1.726-8.221-3.736-16.468-6.203-24.557l5.576,8.052c3.213,4.642,8.352,7.32,13.926,7.319c0.412,0,0.826-0.015,1.242-0.044  c6.049-0.43,11.277-3.924,13.99-9.347l23.549-47.098c0.799-1.6,0.844-3.473,0.121-5.107c-0.723-1.638-2.137-2.865-3.859-3.351  c-4.326-1.221-42.795-11.796-61.254-7.368c-7.602,1.825-13.506,4.704-18.1,7.954l-0.001,0.001  c-6.921-8.392-15.274-15.835-25.438-21.939c-3.871-2.325-8.007-4.454-12.428-6.367c4.42,1.913,8.557,4.042,12.428,6.366  c65.227-6.547,113.953,2.784,145.18,27.903C445.234,171.994,451.143,222.566,452.215,257.894z M248.667,106.451  c0.051,0.021,0.104,0.043,0.156,0.064C248.771,106.494,248.718,106.472,248.667,106.451z M470.746,145.248  c-0.943,0.943-2.199,1.464-3.535,1.464c-1.334,0-2.592-0.521-3.535-1.464c-1.949-1.949-1.949-5.122,0-7.071  c0.975-0.975,2.256-1.462,3.535-1.462c1.281,0,2.561,0.487,3.535,1.461C472.695,140.126,472.695,143.298,470.746,145.248z" fill="#60433A"/><path d="M171.672,237.172c-2.745,0.713-4.549,3.353-4.549,6.188v18.972c0,2.835,1.804,5.476,4.549,6.188  c3.883,1.008,7.54-2.086,7.54-5.852v-19.645C179.212,239.257,175.555,236.163,171.672,237.172" fill="#C45B76"/><path d="M167.212,151.212c0,8.008-11.864,14.5-26.5,14.5c-14.636,0-26.5-6.492-26.5-14.5s11.864-14.5,26.5-14.5  C155.348,136.712,167.212,143.204,167.212,151.212" fill="#FFE6EC"/><path d="M102.212,250.508c0,29.996,18.505,45.205,55,45.205c20.538,0,33.572-5.219,41.767-12.508l-8.483-8.484  c-7.114,6.02-18.165,8.992-33.284,8.992c-16.024,0-27.605-3.131-34.42-9.307c-5.773-5.232-8.58-13.051-8.58-23.898  c0-11.785,6.543-19.341,12.032-23.604c3.092-2.402,6.644-4.38,10.529-5.907l-9.057-9.058  C112.168,219.75,102.212,233.792,102.212,250.508" fill="#C98597"/><path d="M452.215,257.894c-0.863-28.464-4.881-66.819-26.689-96.969c6.715,20.86,15.398,42.04,15.686,62.786  c1,72.001-23.422,107.976-45,116.001c-36.416,13.543-151.999,18-168.999,18c-50.651-0.002-77-18-96.217-32.771  c3.54,6.891,8.115,13.273,14.072,18.873c21.808,20.498,59.083,28.814,113.951,25.41c0.127-0.008,0.252-0.012,0.377-0.012  c3.016,0,5.59,2.256,5.953,5.289l3.262,27.354l14.529-6.605c1.611-0.732,3.465-0.717,5.064,0.045l13.154,6.266l2.365-28.664  c0.23-2.779,2.344-5.035,5.104-5.443l3.129-0.463c20.209-2.992,22.32-3.305,54.711-4.08c2.959-0.082,5.508,2.008,6.045,4.906  l5.414,29.258l15.014-6.824c1.613-0.732,3.465-0.717,5.064,0.045l11.875,5.656l-1.857-33.912c-0.115-2.092,0.871-4.094,2.604-5.277  C422.717,348.623,454.309,327.008,452.215,257.894" fill="#DD9EAC"/></svg>